{"glyphs":{":":{"x_min":0,"x_max":205,"ha":205,"o":""},"$":{"x_min":0,"x_max":404,"ha":404,"o":"m 218 -4 q 215 -5 213 -9 l 205 -79 q 203 -89 194 -89 l 160 -89 q 151 -89 151 -79 l 161 -11 q 161 -7 158 -7 q 103 1 72 40 q 40 79 40 140 q 40 149 42 169 l 45 192 q 47 202 56 202 l 103 202 q 108 202 110 199 q 113 196 112 192 l 109 172 q 108 165 108 152 q 108 107 130 80 q 152 54 189 54 q 230 54 260 85 q 291 116 298 167 q 299 174 299 186 q 299 213 288 234 q 276 256 259 273 q 242 290 201 325 q 161 358 138 382 q 115 406 100 438 q 85 469 85 510 q 85 593 129 646 q 173 698 242 707 q 246 707 246 711 l 254 785 q 255 789 258 792 q 261 795 265 795 l 299 795 q 304 795 306 792 q 309 789 308 785 l 298 709 q 297 706 300 704 q 350 694 378 656 q 406 618 406 559 q 406 549 404 527 l 401 502 q 399 492 390 492 l 342 492 q 333 492 333 502 l 336 528 q 338 544 338 551 q 338 595 316 620 q 294 646 257 646 q 217 646 189 618 q 161 589 154 537 q 153 530 153 517 q 153 481 173 454 q 193 428 246 383 q 293 343 318 318 q 342 294 356 266 q 369 238 369 201 q 369 193 367 173 q 358 102 318 54 q 277 7 218 -4 z"},"?":{"x_min":0,"x_max":358,"ha":358,"o":"m 137 210 l 145 269 q 150 312 170 340 q 189 367 225 400 q 262 434 282 462 q 301 489 306 533 q 307 541 307 556 q 307 597 289 620 q 271 644 240 644 q 202 644 175 613 q 148 582 142 532 l 138 501 q 136 491 127 491 l 78 494 q 68 494 70 504 l 73 532 q 83 611 132 660 q 180 709 249 709 q 310 709 344 670 q 378 632 378 565 q 378 555 376 533 q 370 489 355 457 q 340 425 322 405 q 305 385 277 359 q 248 334 232 314 q 217 293 214 265 l 207 210 q 205 200 196 200 l 146 200 q 137 200 137 210 z m 99 50 q 99 77 117 96 q 135 114 161 114 q 182 114 196 101 q 209 88 209 66 q 209 39 192 20 q 174 2 148 2 q 126 2 112 16 q 99 29 99 50 z"},"<":{"x_min":0,"x_max":428,"ha":428,"o":"m 375 64 l 48 240 q 41 244 43 252 l 48 300 q 50 308 57 312 l 427 488 l 432 490 q 435 490 436 488 q 438 485 437 481 l 431 432 q 431 425 423 420 l 117 279 q 112 276 116 273 l 388 132 q 394 127 393 120 l 387 71 q 386 66 382 64 q 379 61 375 64 z"},"'":{"x_min":0,"x_max":115,"ha":115,"o":"m 71 503 l 86 688 q 87 692 90 695 q 93 698 97 698 l 149 698 q 159 698 157 688 l 127 503 q 126 493 116 493 l 80 493 q 71 493 71 503 z"},"=":{"x_min":0,"x_max":428,"ha":428,"o":""},"a":{"x_min":0,"x_max":410,"ha":410,"o":"m 335 506 l 384 506 q 393 506 393 496 l 333 10 q 331 0 322 0 l 273 0 q 268 0 266 3 q 263 6 264 10 l 269 47 q 269 50 267 50 q 265 51 264 48 q 244 20 217 6 q 190 -8 159 -8 q 104 -8 74 26 q 45 59 45 116 q 45 125 47 145 l 73 361 q 82 431 122 472 q 162 514 223 514 q 254 514 278 500 q 302 486 314 458 q 315 455 317 456 q 319 456 319 459 l 324 496 q 326 506 335 506 z m 281 150 l 307 356 q 308 362 308 372 q 308 408 288 430 q 269 452 237 452 q 200 452 174 426 q 147 399 142 356 l 116 150 q 115 144 115 134 q 115 98 135 76 q 155 54 188 54 q 225 54 250 80 q 276 107 281 150 z"},"L":{"x_min":0,"x_max":384,"ha":384,"o":"m 52 10 l 135 690 q 137 700 146 700 l 196 700 q 200 700 202 697 q 205 694 204 690 l 127 66 q 127 62 131 62 l 353 62 q 363 62 361 52 l 356 10 q 356 6 353 3 q 350 0 345 0 l 60 0 q 50 0 52 10 z"},"3":{"x_min":0,"x_max":396,"ha":396,"o":"m 355 265 q 355 241 352 212 q 346 158 329 115 q 286 -8 171 -8 q 110 -8 75 27 q 40 62 38 124 q 36 159 41 201 q 43 211 52 211 l 102 211 q 106 211 108 208 q 111 205 110 201 q 107 177 107 158 q 107 107 125 80 q 143 54 178 54 q 239 54 267 128 q 278 165 286 218 q 290 247 290 279 q 290 304 287 323 q 282 355 264 372 q 247 388 219 388 q 210 388 196 382 q 186 377 183 383 l 161 410 q 159 414 159 417 q 159 420 162 424 l 316 633 q 318 634 317 636 q 316 638 314 638 l 109 638 q 105 638 102 641 q 100 644 101 648 l 106 690 q 108 700 117 700 l 400 700 q 409 700 409 690 l 403 645 q 403 642 398 632 l 254 438 q 253 437 253 435 q 253 433 255 433 q 294 429 318 400 q 343 372 350 326 q 355 296 355 265 z"},";":{"x_min":0,"x_max":187,"ha":187,"o":"m 70 398 q 70 425 89 445 q 108 465 132 465 q 151 465 164 450 q 178 436 178 414 q 178 387 160 367 q 141 347 117 347 q 96 347 83 362 q 70 376 70 398 z m 16 -65 l 62 142 q 65 151 74 151 l 117 151 q 121 151 124 148 q 126 145 124 140 l 66 -66 q 63 -75 54 -75 l 25 -75 q 20 -75 18 -72 q 15 -69 16 -65 z"},"J":{"x_min":0,"x_max":413,"ha":413,"o":"m 20 133 q 20 141 22 161 l 32 245 q 34 255 43 255 l 92 255 q 97 255 100 252 q 102 249 101 245 l 90 160 q 89 154 89 143 q 89 102 110 78 q 132 54 170 54 q 211 54 240 84 q 269 113 275 160 l 340 690 q 342 700 351 700 l 400 700 q 409 700 409 690 l 344 161 q 334 85 284 38 q 234 -8 162 -8 q 97 -8 58 30 q 20 68 20 133 z"},"V":{"x_min":0,"x_max":426,"ha":426,"o":"m 156 9 l 99 689 q 99 700 109 700 l 164 700 q 173 700 173 691 l 209 132 q 210 130 211 130 q 212 130 213 132 l 386 691 q 388 700 397 700 l 450 700 q 460 700 457 689 l 233 9 q 230 0 221 0 l 166 0 q 158 0 156 9 z"},"\"":{"x_min":0,"x_max":228,"ha":228,"o":"m 71 498 l 86 684 q 88 694 97 694 l 145 694 q 150 694 152 691 q 155 688 154 684 l 123 498 q 122 488 112 488 l 79 488 q 70 488 71 498 z m 185 498 l 201 684 q 203 694 212 694 l 261 694 q 271 694 269 684 l 239 498 q 238 488 228 488 l 194 488 q 184 488 185 498 z"},"7":{"x_min":0,"x_max":355,"ha":355,"o":"m 81 11 l 323 634 q 324 635 323 636 q 322 638 320 638 l 142 638 q 138 638 138 634 l 133 593 q 131 583 122 583 l 84 583 q 74 583 76 593 l 88 690 q 88 694 91 697 q 94 700 99 700 l 395 700 q 400 700 402 697 q 405 694 404 690 l 398 644 q 398 641 397 638 q 396 635 395 632 l 153 9 q 152 5 149 2 q 146 0 142 0 l 88 0 q 76 0 81 11 z"},"S":{"x_min":0,"x_max":404,"ha":404,"o":"m 40 140 q 40 149 42 169 l 45 192 q 47 202 56 202 l 103 202 q 108 202 110 199 q 113 196 112 192 l 109 172 q 108 165 108 152 q 108 107 130 80 q 152 54 189 54 q 230 54 260 85 q 291 116 298 167 q 299 174 299 186 q 299 213 288 234 q 276 256 259 273 q 242 290 201 325 q 161 358 138 382 q 115 406 100 438 q 85 469 85 510 q 85 519 87 539 q 97 617 146 662 q 194 708 264 708 q 330 708 368 668 q 406 627 406 559 q 406 549 404 527 l 401 502 q 399 492 390 492 l 342 492 q 333 492 333 502 l 336 528 q 338 544 338 551 q 338 595 316 620 q 294 646 257 646 q 217 646 189 618 q 161 589 154 537 q 153 530 153 517 q 153 481 173 454 q 193 428 246 383 q 293 343 318 318 q 342 294 356 266 q 369 238 369 201 q 369 193 367 173 q 357 91 305 42 q 253 -8 181 -8 q 117 -8 78 32 q 40 72 40 140 z"},"}":{"x_min":0,"x_max":265,"ha":265,"o":"m 1 -121 q -4 -121 -6 -118 q -9 -115 -8 -111 l -3 -69 q -1 -59 8 -59 l 33 -59 q 86 -59 95 16 l 120 215 q 130 301 180 328 q 182 329 182 330 q 182 331 180 332 q 146 354 146 410 q 146 432 148 444 l 171 638 q 173 654 173 660 q 173 712 128 712 l 103 712 q 94 712 94 722 l 100 764 q 100 768 103 771 q 106 774 111 774 l 160 774 q 245 774 245 690 q 245 681 243 661 l 217 449 q 215 429 215 423 q 215 369 256 360 q 264 358 263 350 l 258 310 q 258 302 248 300 q 222 295 208 274 q 193 252 188 210 l 161 -7 q 154 -65 127 -93 q 100 -121 50 -121 z"},"Z":{"x_min":0,"x_max":383,"ha":383,"o":"m 14 10 l 19 56 q 21 62 24 68 l 329 633 q 330 635 330 636 q 329 638 327 638 l 101 638 q 96 638 94 641 q 91 644 92 648 l 97 690 q 99 700 108 700 l 402 700 q 411 700 411 690 l 405 644 q 405 642 401 632 l 96 67 q 95 65 96 64 q 97 62 99 62 l 324 62 q 334 62 332 52 l 327 10 q 325 0 316 0 l 22 0 q 12 0 14 10 z"},"x":{"x_min":0,"x_max":364,"ha":364,"o":"m 4 12 l 152 250 q 153 252 153 256 l 64 494 l 63 498 q 63 506 72 506 l 126 506 q 136 506 137 499 l 199 321 q 200 319 202 319 q 204 319 205 321 l 312 499 q 315 506 324 506 l 378 506 q 383 506 384 502 q 386 499 384 494 l 236 256 q 235 254 235 250 l 324 12 l 325 8 q 325 0 316 0 l 262 0 q 252 0 251 7 l 189 186 q 188 188 186 188 q 184 188 183 186 l 77 7 q 73 0 64 0 l 10 0 q 5 0 4 4 q 2 7 4 12 z"},")":{"x_min":0,"x_max":215,"ha":215,"o":"m 205 756 q 225 703 236 632 q 248 560 248 478 q 248 409 239 334 q 224 208 186 94 q 147 -21 99 -97 q 93 -104 86 -104 l 40 -104 q 35 -104 33 -101 q 31 -98 33 -93 q 75 -13 110 100 q 146 212 161 332 q 170 399 170 484 q 170 636 137 752 l 136 755 q 136 763 146 763 l 195 763 q 202 763 205 756 z"},"&":{"x_min":0,"x_max":526,"ha":526,"o":"m 461 7 q 461 0 452 0 l 400 0 q 391 0 389 6 l 356 66 q 356 68 354 68 q 352 68 350 67 q 310 27 269 9 q 228 -9 181 -9 q 114 -9 76 26 q 38 61 38 125 q 38 134 40 156 q 48 223 85 272 q 122 322 182 369 q 185 370 183 374 q 149 439 137 470 q 125 501 125 528 q 125 536 127 554 q 136 624 180 666 q 224 708 287 708 q 344 708 378 672 q 413 637 413 579 q 413 563 412 555 q 404 494 368 450 q 333 407 271 358 q 269 357 269 353 q 296 306 316 268 l 365 180 q 366 179 368 179 q 370 179 371 180 q 390 204 428 261 q 430 265 434 266 q 438 267 442 265 l 476 243 q 480 240 480 237 q 480 234 477 229 q 437 165 401 124 q 400 121 401 118 l 459 12 z m 194 531 q 194 512 203 488 q 212 464 236 416 q 238 412 241 415 q 291 455 318 490 q 344 525 344 570 q 344 603 326 623 q 309 643 281 643 q 244 643 219 612 q 194 581 194 531 z m 321 120 q 323 124 322 126 l 284 195 l 218 312 q 216 315 213 312 q 162 271 135 232 q 108 192 108 139 q 108 100 131 76 q 154 53 196 53 q 228 53 258 70 q 289 86 321 120 z"},"_":{"x_min":0,"x_max":365,"ha":365,"o":"m 3 10 l 8 47 q 8 51 11 54 q 14 57 19 57 l 321 57 q 330 57 330 47 l 325 10 q 323 0 314 0 l 12 0 q 7 0 4 3 q 2 6 3 10 z"},"v":{"x_min":0,"x_max":367,"ha":367,"o":"m 126 9 l 66 495 l 66 497 q 66 506 75 506 l 131 506 q 139 506 141 497 l 177 118 q 178 115 179 115 q 180 115 181 118 l 310 497 q 313 506 322 506 l 378 505 q 383 505 385 502 q 387 499 385 494 l 206 9 q 203 0 194 0 l 136 0 q 126 0 126 9 z"},"O":{"x_min":0,"x_max":442,"ha":442,"o":"m 52 141 q 52 149 54 167 l 99 533 q 109 611 162 660 q 214 708 288 708 q 356 708 396 668 q 437 628 437 561 q 437 553 435 533 l 390 167 q 380 88 328 40 q 275 -8 200 -8 q 132 -8 92 32 q 52 73 52 141 z m 321 163 l 367 536 q 368 542 368 552 q 368 594 344 620 q 320 646 280 646 q 237 646 206 616 q 175 585 169 536 l 123 163 q 122 157 122 145 q 122 104 145 79 q 168 54 207 54 q 252 54 284 84 q 315 115 321 163 z"},"(":{"x_min":0,"x_max":215,"ha":215,"o":"m 51 -97 q 32 -44 20 28 q 9 99 9 180 q 9 250 18 325 q 33 451 71 565 q 109 679 158 756 q 162 763 170 763 l 218 763 q 223 763 225 760 q 227 756 224 752 q 181 672 146 560 q 111 447 96 326 q 87 248 87 176 q 87 98 96 29 q 105 -40 121 -92 l 121 -95 q 121 -99 118 -102 q 115 -104 111 -104 l 62 -104 q 54 -104 51 -97 z"},"C":{"x_min":0,"x_max":432,"ha":432,"o":"m 52 137 q 52 145 54 165 l 100 536 q 110 614 160 661 q 211 708 286 708 q 354 708 394 669 q 433 630 433 563 q 433 554 431 536 l 428 519 q 428 515 425 512 q 422 509 418 509 l 367 506 q 358 506 358 516 l 361 541 q 362 547 362 559 q 362 599 340 622 q 317 646 278 646 q 235 646 205 617 q 175 588 169 541 l 122 159 q 121 153 121 143 q 121 103 144 78 q 166 54 205 54 q 249 54 279 83 q 309 112 314 159 l 317 184 q 318 188 321 191 q 324 194 328 194 l 378 191 q 383 191 386 188 q 388 185 387 181 l 385 165 q 375 86 324 39 q 273 -8 198 -8 q 131 -8 92 31 q 52 70 52 137 z"},"W":{"x_min":0,"x_max":604,"ha":604,"o":"m 138 9 l 93 689 q 93 694 96 697 q 99 700 103 700 l 155 700 q 164 700 164 691 l 191 165 q 192 163 193 163 q 194 163 195 165 l 338 691 q 341 700 349 700 l 393 700 q 402 700 402 691 l 420 165 q 421 161 424 165 l 572 691 q 574 700 583 700 l 634 700 q 639 700 641 697 q 643 694 641 689 l 438 9 q 435 0 426 0 l 378 0 q 370 0 370 9 l 353 537 q 352 539 351 539 q 350 539 349 537 l 205 9 q 202 0 194 0 l 147 0 q 138 0 138 9 z"},"A":{"x_min":0,"x_max":397,"ha":397,"o":"m 297 9 l 288 133 q 288 137 284 137 l 108 137 q 106 137 104 136 q 103 135 103 133 l 63 9 q 60 0 51 0 l 2 0 q -3 0 -5 3 q -7 6 -5 11 l 224 691 q 226 700 235 700 l 294 700 q 303 700 303 691 l 367 11 q 367 0 357 0 l 307 0 q 297 0 297 9 z m 126 195 l 279 195 q 282 195 282 199 l 253 592 q 253 595 252 595 q 251 595 249 592 l 123 199 q 123 195 126 195 z"},"f":{"x_min":0,"x_max":269,"ha":269,"o":"m 194 541 l 191 510 q 190 509 191 508 q 192 506 194 506 l 269 506 q 279 506 277 496 l 273 463 q 271 453 262 453 l 188 453 q 186 453 184 452 q 183 451 183 449 l 129 10 q 129 6 126 3 q 123 0 118 0 l 70 0 q 61 0 61 10 l 115 449 q 116 450 115 452 q 114 453 112 453 l 73 453 q 63 453 65 463 l 69 496 q 69 500 72 503 q 75 506 80 506 l 118 506 q 120 506 122 507 q 123 508 123 510 l 127 542 q 138 629 174 668 q 209 707 282 707 l 295 707 q 300 707 302 704 q 305 701 304 697 l 298 656 q 297 646 287 646 l 275 646 q 238 646 220 620 q 201 595 194 541 z"},"Q":{"x_min":0,"x_max":430,"ha":430,"o":"m 424 560 q 424 550 422 530 l 378 170 q 370 102 330 55 q 291 8 233 -4 q 229 -5 229 -9 l 217 -105 q 215 -115 206 -115 l 157 -115 q 152 -115 150 -112 q 147 -109 148 -105 l 160 -9 q 160 -6 157 -4 q 108 7 80 46 q 53 84 53 141 q 53 150 55 170 l 99 530 q 109 609 160 658 q 211 708 283 708 q 348 708 386 668 q 424 627 424 560 z m 354 537 q 355 544 355 556 q 355 597 334 622 q 312 646 275 646 q 234 646 204 616 q 175 585 169 537 l 123 163 q 122 156 122 144 q 122 103 144 78 q 166 54 203 54 q 244 54 273 84 q 302 115 308 163 z"},"w":{"x_min":0,"x_max":538,"ha":538,"o":"m 108 9 l 65 495 q 65 506 75 506 l 122 506 q 132 506 132 497 l 155 115 q 155 113 156 113 q 158 113 159 115 l 277 497 q 280 506 289 506 l 333 506 q 342 506 342 497 l 367 115 q 368 113 369 113 q 370 113 371 115 l 490 497 q 492 506 502 506 l 548 505 q 558 505 555 494 l 393 9 q 390 0 381 0 l 332 0 q 322 0 322 9 l 295 375 q 295 378 294 378 q 293 378 291 375 l 178 9 q 175 0 166 0 l 117 0 q 108 0 108 9 z"},"-":{"x_min":0,"x_max":304,"ha":304,"o":"m 47 290 l 52 332 q 53 336 56 339 q 59 342 63 342 l 285 342 q 290 342 292 339 q 295 336 294 332 l 289 290 q 287 280 278 280 l 56 280 q 47 280 47 290 z"},"E":{"x_min":0,"x_max":416,"ha":416,"o":"m 427 638 l 202 638 q 200 638 198 637 q 197 636 197 634 l 167 386 q 166 385 167 384 q 168 382 170 382 l 312 382 q 322 382 320 372 l 315 329 q 313 319 304 319 l 162 319 q 158 319 158 315 l 127 66 q 127 62 131 62 l 356 62 q 366 62 364 52 l 359 10 q 357 0 348 0 l 60 0 q 50 0 52 10 l 135 690 q 137 700 146 700 l 434 700 q 443 700 443 690 l 437 648 q 437 644 434 641 q 431 638 427 638 z"},"s":{"x_min":0,"x_max":363,"ha":363,"o":"m 35 106 q 35 119 36 125 l 37 132 q 37 136 40 139 q 43 142 48 142 l 94 142 q 103 142 103 132 l 102 126 q 98 94 118 72 q 138 50 175 50 q 213 50 238 76 q 263 101 263 139 q 263 161 251 176 q 239 192 224 200 q 209 209 175 225 q 143 239 122 253 q 100 267 84 291 q 69 315 69 351 q 69 365 70 373 q 78 437 121 474 q 164 511 229 511 q 289 511 322 479 q 356 447 356 393 q 356 379 355 372 l 355 369 q 353 359 344 359 l 299 359 q 289 359 291 369 l 291 375 q 292 379 292 387 q 292 416 273 434 q 254 453 222 453 q 188 453 164 430 q 141 408 136 375 q 133 351 144 334 q 154 318 171 307 q 188 296 220 282 q 255 266 277 252 q 299 237 316 212 q 332 188 332 152 q 332 81 286 38 q 240 -5 167 -5 q 105 -5 70 25 q 35 55 35 106 z"},">":{"x_min":0,"x_max":428,"ha":428,"o":"m 26 62 q 23 62 21 64 q 19 67 20 71 l 26 120 q 28 128 35 132 l 341 273 q 345 276 342 279 l 70 420 q 64 425 65 432 l 71 481 q 72 486 76 488 q 79 491 83 488 l 410 312 q 416 307 415 300 l 409 252 q 409 245 401 240 l 31 64 z"},"l":{"x_min":0,"x_max":176,"ha":176,"o":"m 35 10 l 119 690 q 119 694 122 697 q 125 700 130 700 l 179 700 q 188 700 188 690 l 104 10 q 102 0 93 0 l 44 0 q 39 0 36 3 q 34 6 35 10 z"},"8":{"x_min":0,"x_max":410,"ha":410,"o":"m 312 368 q 345 349 356 311 q 366 282 366 240 q 366 219 363 195 q 357 142 338 100 q 315 49 274 20 q 234 -8 183 -8 q 134 -8 101 20 q 68 48 57 99 q 52 124 52 149 q 52 172 55 196 q 62 258 87 304 q 108 346 149 368 q 153 371 150 374 q 120 391 105 428 q 94 458 94 496 q 94 506 96 530 q 104 591 130 632 q 152 669 189 690 q 226 710 271 710 q 317 710 348 690 q 380 671 394 634 q 407 603 407 566 q 407 549 404 529 q 398 470 372 430 q 348 394 313 374 q 308 371 312 368 z m 162 499 q 162 466 170 449 q 184 400 233 400 q 260 400 280 414 q 301 428 314 453 q 332 484 336 525 q 338 545 338 553 q 338 580 329 601 q 313 648 264 648 q 239 648 220 635 q 200 622 187 598 q 162 555 162 499 z m 296 199 q 298 213 298 238 q 298 269 293 285 q 279 343 226 343 q 173 343 145 281 q 129 245 123 199 q 121 171 121 160 q 121 148 123 126 q 127 92 145 73 q 163 54 191 54 q 221 54 244 74 q 266 93 280 129 q 292 163 296 199 z"},"\\":{"x_min":0,"x_max":324,"ha":324,"o":"m 282 9 q 282 5 279 2 q 276 0 272 0 l 223 0 q 214 0 214 9 l 121 689 l 121 691 q 121 700 132 700 l 180 700 q 188 700 190 691 l 282 11 z"},"e":{"x_min":0,"x_max":395,"ha":395,"o":"m 351 226 l 130 226 q 128 226 126 225 q 125 224 125 222 l 116 149 q 115 144 115 133 q 115 98 135 76 q 155 54 187 54 q 218 54 242 74 q 266 93 277 124 q 282 133 289 133 l 337 131 q 341 131 344 128 q 346 125 344 120 q 330 61 286 26 q 243 -8 179 -8 q 117 -8 82 27 q 46 62 46 121 q 46 137 47 145 l 73 361 q 81 429 128 472 q 175 514 244 514 q 307 514 343 479 q 379 444 379 385 q 379 377 377 361 l 362 236 q 360 226 351 226 z m 142 356 l 133 289 q 133 285 137 285 l 296 285 q 300 285 300 289 l 309 356 q 310 362 310 372 q 310 408 290 430 q 270 452 236 452 q 199 452 173 426 q 147 399 142 356 z"},"b":{"x_min":0,"x_max":410,"ha":410,"o":"m 389 387 q 389 379 387 361 l 360 145 q 352 77 310 34 q 268 -8 206 -8 q 180 -8 156 2 q 133 13 118 34 q 116 36 114 35 q 113 34 113 32 l 110 10 q 108 0 99 0 l 49 0 q 45 0 42 3 q 40 6 41 10 l 124 690 q 125 694 128 697 q 131 700 135 700 l 185 700 q 195 700 193 690 l 167 474 q 166 472 168 471 q 170 470 172 473 q 193 493 218 504 q 244 514 270 514 q 325 514 357 480 q 389 445 389 387 z m 318 372 q 318 408 298 430 q 279 452 245 452 q 209 452 183 426 q 157 399 152 356 l 127 149 q 126 143 126 132 q 126 97 145 76 q 164 54 196 54 q 233 54 260 80 q 287 107 292 149 l 317 356 q 318 362 318 372 z"},"%":{"x_min":0,"x_max":758,"ha":758,"o":"m 119 548 q 119 591 140 628 q 162 665 198 687 q 233 709 273 709 q 324 709 358 674 q 392 638 392 585 q 392 542 370 505 q 349 468 314 446 q 278 425 238 425 q 186 425 152 460 q 119 495 119 548 z m 157 12 l 596 693 q 600 700 609 700 l 640 700 q 646 700 648 696 q 650 693 646 688 l 206 7 q 203 0 194 0 l 163 0 q 157 0 155 4 q 153 7 157 12 z m 349 581 q 349 618 326 642 q 304 667 268 667 q 240 667 216 652 q 191 636 176 610 q 162 583 162 553 q 162 516 185 492 q 208 467 244 467 q 271 467 296 483 q 320 499 334 525 q 349 551 349 581 z m 414 115 q 414 157 436 194 q 457 231 492 253 q 528 275 568 275 q 619 275 653 240 q 687 204 687 151 q 687 108 666 71 q 644 34 608 12 q 573 -9 533 -9 q 481 -9 448 26 q 414 62 414 115 z m 644 148 q 644 184 621 208 q 598 233 563 233 q 520 233 488 200 q 457 166 457 120 q 457 82 480 58 q 503 33 539 33 q 566 33 590 48 q 615 64 630 90 q 644 117 644 148 z"},"m":{"x_min":0,"x_max":628,"ha":628,"o":"m 600 386 q 600 368 597 347 l 556 10 q 554 0 545 0 l 497 0 q 492 0 490 3 q 487 6 488 10 l 529 341 q 530 349 530 365 q 530 405 513 428 q 496 451 467 451 q 430 451 405 422 q 380 393 374 343 l 333 10 q 331 0 322 0 l 273 0 q 268 0 266 3 q 263 6 264 10 l 305 341 q 306 349 306 365 q 306 405 290 428 q 273 451 244 451 q 206 451 181 422 q 156 393 150 343 l 109 10 q 107 0 98 0 l 49 0 q 45 0 42 3 q 40 6 41 10 l 101 496 q 101 500 104 503 q 107 506 112 506 l 160 506 q 169 506 169 496 l 165 465 q 164 463 166 462 q 167 462 169 464 q 191 489 218 501 q 245 513 273 513 q 309 513 334 494 q 359 476 370 442 q 370 440 372 440 q 374 440 375 443 q 397 479 430 496 q 462 513 496 513 q 546 513 573 480 q 600 446 600 386 z"},"#":{"x_min":0,"x_max":571,"ha":571,"o":"m 542 429 l 480 429 q 479 429 477 428 q 475 427 475 425 l 433 266 q 433 262 436 262 l 489 262 q 498 262 498 252 l 492 210 q 492 206 489 203 q 486 200 481 200 l 418 200 q 413 200 413 196 l 368 25 q 365 16 357 16 l 308 18 q 304 18 302 21 q 299 24 300 29 l 344 196 q 344 200 342 200 l 200 200 q 195 200 195 196 l 150 25 q 147 16 139 16 l 90 18 q 85 18 83 22 q 81 25 82 29 l 126 196 q 126 200 123 200 l 68 200 q 58 200 60 210 l 65 252 q 67 262 76 262 l 140 262 q 145 262 145 266 l 187 425 q 187 429 185 429 l 128 429 q 124 429 122 432 q 119 435 120 439 l 125 482 q 127 492 136 492 l 202 492 q 207 492 207 496 l 253 667 q 254 676 263 676 l 313 674 q 317 674 319 670 q 321 667 320 663 l 276 496 q 276 492 279 492 l 420 492 q 425 492 426 496 l 471 667 q 474 676 482 676 l 531 674 q 535 674 538 671 q 540 668 538 663 l 494 496 q 494 492 497 492 l 549 492 q 558 492 558 482 l 552 439 q 552 435 549 432 q 546 429 542 429 z m 363 266 l 405 425 q 406 426 405 428 q 404 429 403 429 l 262 429 q 257 429 257 425 l 215 266 q 215 262 217 262 l 358 262 q 363 262 363 266 z"},",":{"x_min":0,"x_max":172,"ha":172,"o":"m 10 -68 l 66 146 q 69 155 77 155 l 121 155 q 131 155 128 144 l 58 -70 q 57 -79 47 -79 l 17 -79 q 13 -79 11 -76 q 9 -72 10 -68 z"},"n":{"x_min":0,"x_max":411,"ha":411,"o":"m 384 389 q 384 378 382 354 l 340 10 q 338 0 329 0 l 279 0 q 275 0 272 3 q 270 6 271 10 l 312 348 q 314 364 314 371 q 314 409 296 430 q 279 451 246 451 q 208 451 182 422 q 157 393 151 343 l 110 10 q 108 0 99 0 l 49 0 q 45 0 42 3 q 40 6 41 10 l 101 496 q 101 500 104 503 q 107 506 112 506 l 161 506 q 170 506 170 496 l 166 464 q 165 462 167 461 q 169 460 171 463 q 191 488 218 500 q 246 513 277 513 q 329 513 356 481 q 384 449 384 389 z"},"h":{"x_min":0,"x_max":411,"ha":411,"o":"m 384 389 q 384 378 382 354 l 340 10 q 338 0 329 0 l 279 0 q 275 0 272 3 q 270 6 271 10 l 312 348 q 314 364 314 371 q 314 409 296 430 q 279 451 246 451 q 208 451 182 422 q 157 393 151 343 l 110 10 q 108 0 99 0 l 49 0 q 45 0 42 3 q 40 6 41 10 l 124 690 q 125 694 128 697 q 131 700 135 700 l 185 700 q 195 700 193 690 l 166 464 q 165 462 167 461 q 169 460 171 463 q 191 488 218 500 q 246 513 277 513 q 329 513 356 481 q 384 449 384 389 z"},"z":{"x_min":0,"x_max":350,"ha":350,"o":"m 14 10 l 20 58 q 20 63 24 71 l 268 436 q 269 438 268 440 q 268 441 267 441 l 80 441 q 76 441 74 444 q 71 447 72 451 l 77 496 q 79 506 88 506 l 350 506 q 359 506 359 496 l 353 448 q 351 438 348 435 l 103 70 q 101 68 102 66 q 103 65 105 65 l 298 65 q 308 65 306 55 l 301 10 q 299 0 290 0 l 22 0 q 12 0 14 10 z"},"B":{"x_min":0,"x_max":435,"ha":435,"o":"m 209 0 l 60 0 q 50 0 52 10 l 135 690 q 137 700 146 700 l 286 700 q 361 700 402 661 q 444 622 444 549 q 444 539 442 517 q 429 405 342 364 q 340 363 340 362 q 340 361 341 360 q 408 316 408 223 q 408 214 406 190 q 395 100 342 50 q 288 0 209 0 z m 197 634 l 168 393 q 167 392 168 390 q 169 389 171 389 l 248 389 q 306 389 340 428 q 375 468 375 537 q 375 585 350 612 q 324 638 278 638 l 202 638 q 200 638 198 637 q 197 636 197 634 z m 338 198 q 340 218 340 226 q 340 278 316 306 q 291 335 245 335 l 164 335 q 160 335 160 331 l 128 67 q 127 66 128 64 q 129 63 131 63 l 211 63 q 263 63 296 98 q 330 134 338 198 z"},"K":{"x_min":0,"x_max":439,"ha":439,"o":"m 52 10 l 135 690 q 137 700 146 700 l 196 700 q 200 700 202 697 q 205 694 204 690 l 164 366 q 164 363 166 362 q 167 361 169 364 l 396 693 q 403 700 409 700 l 463 700 q 469 700 470 696 q 472 693 469 688 l 284 417 q 282 413 282 411 l 400 12 l 401 9 q 401 0 391 0 l 336 0 q 327 0 326 8 l 228 348 q 227 352 223 348 l 151 252 q 150 251 150 247 l 121 10 q 120 6 117 3 q 114 0 110 0 l 60 0 q 50 0 52 10 z"},"R":{"x_min":0,"x_max":430,"ha":430,"o":"m 311 8 l 250 317 q 250 320 247 320 l 162 320 q 161 320 160 319 q 158 318 158 316 l 121 10 q 120 6 117 3 q 114 0 110 0 l 60 0 q 50 0 52 10 l 135 690 q 137 700 146 700 l 306 700 q 369 700 406 657 q 443 614 443 542 q 443 531 441 507 q 433 442 400 395 q 367 348 318 329 q 314 328 314 324 l 382 11 l 382 9 q 382 0 372 0 l 322 0 q 314 0 311 8 z m 197 634 l 166 381 q 166 379 167 378 q 168 377 169 377 l 257 377 q 301 377 333 412 q 365 448 372 507 q 373 516 373 532 q 373 581 350 610 q 328 638 289 638 l 202 638 q 200 638 198 637 q 197 636 197 634 z"},"T":{"x_min":0,"x_max":410,"ha":410,"o":"m 443 690 l 437 648 q 437 644 434 641 q 431 638 427 638 l 299 638 q 297 638 296 637 q 294 636 294 634 l 218 10 q 217 6 214 3 q 211 0 207 0 l 157 0 q 147 0 149 10 l 225 634 q 226 635 225 636 q 224 638 222 638 l 102 638 q 97 638 94 641 q 92 644 93 648 l 98 690 q 100 700 109 700 l 434 700 q 443 700 443 690 z"},"P":{"x_min":0,"x_max":429,"ha":429,"o":"m 442 542 q 442 531 440 507 q 429 421 380 368 q 331 316 261 316 l 161 316 q 157 316 157 312 l 120 10 q 119 6 116 3 q 113 0 109 0 l 59 0 q 49 0 51 10 l 134 691 q 136 701 145 701 l 305 701 q 368 701 405 658 q 442 615 442 542 z m 371 506 q 373 524 373 533 q 373 582 350 610 q 327 639 289 639 l 201 639 q 198 639 196 635 l 165 378 q 165 374 168 374 l 256 374 q 301 374 332 410 q 364 446 371 506 z"},"|":{"x_min":0,"x_max":139,"ha":139,"o":"m 7 -70 l 108 750 q 108 754 111 757 q 114 760 119 760 l 168 760 q 178 760 176 750 l 76 -70 q 74 -80 65 -80 l 15 -80 q 11 -80 8 -77 q 6 -74 7 -70 z"},"t":{"x_min":0,"x_max":259,"ha":259,"o":"m 258 453 l 185 453 q 182 453 180 449 l 143 143 q 141 125 141 118 q 141 86 154 74 q 168 62 196 63 l 206 63 q 210 63 212 60 q 215 57 214 53 l 209 10 q 207 0 198 0 l 174 0 q 123 0 96 20 q 70 39 70 92 q 70 100 72 122 l 112 449 q 113 450 112 452 q 111 453 109 453 l 71 453 q 61 453 63 463 l 67 496 q 67 500 70 503 q 73 506 78 506 l 115 506 q 117 506 118 507 q 120 508 120 510 l 134 622 q 134 626 137 629 q 140 632 145 632 l 193 632 q 202 632 202 622 l 188 510 q 188 506 191 506 l 265 506 q 275 506 273 496 l 269 463 q 269 459 266 456 q 263 453 258 453 z"},"M":{"x_min":0,"x_max":505,"ha":505,"o":"m 444 700 l 494 700 q 499 700 502 697 q 504 694 503 690 l 419 10 q 419 6 416 3 q 413 0 408 0 l 359 0 q 350 0 350 10 l 416 546 q 417 549 416 549 q 414 549 412 547 l 284 331 q 281 324 274 324 q 265 324 264 331 l 189 546 q 188 548 186 548 q 185 548 184 545 l 119 10 q 118 6 115 3 q 112 0 108 0 l 58 0 q 48 0 50 10 l 133 690 q 135 700 144 700 l 195 700 q 204 700 205 693 l 288 462 q 288 460 290 460 q 292 460 293 462 l 431 693 q 435 700 444 700 z"},"g":{"x_min":0,"x_max":401,"ha":401,"o":"m 335 506 l 384 506 q 393 506 393 496 l 333 10 q 320 -97 266 -152 q 211 -208 98 -203 q 88 -201 90 -192 l 95 -149 q 97 -139 106 -139 q 183 -141 219 -102 q 255 -64 265 16 l 269 46 q 269 48 268 49 q 266 50 264 48 q 244 23 217 10 q 190 -3 161 -3 q 106 -3 76 30 q 46 64 46 120 q 46 130 48 150 l 73 361 q 82 431 122 472 q 163 514 224 514 q 254 514 278 502 q 302 489 315 464 q 318 458 320 465 l 324 496 q 326 506 335 506 z m 282 154 l 307 356 q 308 362 308 372 q 308 408 288 430 q 269 452 237 452 q 200 452 174 426 q 147 399 142 356 l 117 154 q 116 149 116 138 q 116 103 136 81 q 156 59 189 59 q 225 59 251 86 q 277 112 282 154 z"},"j":{"x_min":0,"x_max":194,"ha":194,"o":"m 99 646 q 99 673 118 692 q 136 710 161 710 q 183 710 196 697 q 209 684 209 663 q 209 635 191 616 q 173 598 147 598 q 126 598 112 612 q 99 625 99 646 z m -73 -198 l -68 -156 q -66 -146 -57 -146 q 23 -143 34 -44 l 101 496 q 101 500 104 503 q 107 506 112 506 l 161 506 q 170 506 170 496 l 103 -44 q 93 -126 57 -167 q 21 -208 -64 -208 q -69 -208 -72 -205 q -74 -202 -73 -198 z"},"i":{"x_min":0,"x_max":201,"ha":201,"o":"m 107 654 q 111 679 128 694 q 145 710 169 710 q 190 710 203 697 q 216 684 216 663 q 216 635 198 616 q 181 598 155 598 q 131 598 118 614 q 105 630 107 654 z m 49 10 l 108 496 q 109 500 112 503 q 115 506 119 506 l 169 506 q 179 506 177 496 l 118 10 q 116 0 107 0 l 57 0 q 47 0 49 10 z"},"y":{"x_min":0,"x_max":357,"ha":357,"o":"m -6 -190 l -1 -150 q 1 -140 10 -140 q 40 -139 58 -128 q 76 -117 90 -89 q 105 -61 123 -3 q 124 -2 124 0 q 123 2 124 3 l 61 495 l 61 497 q 61 506 71 506 l 123 506 q 133 506 133 497 l 170 104 q 170 101 172 101 q 173 101 174 104 l 306 497 q 309 506 318 506 l 372 505 q 377 505 379 502 q 381 499 379 494 l 178 -44 q 152 -111 131 -143 q 110 -175 82 -188 q 53 -200 4 -200 l -1 -200 q -3 -200 -5 -197 q -7 -194 -6 -190 z"},"@":{"x_min":0,"x_max":738,"ha":738,"o":"m 715 379 q 715 331 702 282 q 678 188 626 136 q 575 83 507 83 q 443 83 420 128 q 418 131 415 128 q 398 104 374 92 q 351 81 327 81 q 288 81 264 103 q 240 125 240 163 q 240 176 243 189 l 262 267 q 270 304 280 338 q 293 388 324 417 q 356 446 401 446 q 438 446 459 418 q 460 416 462 417 q 463 418 464 420 l 466 432 q 469 441 477 441 l 508 441 q 513 441 515 438 q 517 434 516 430 l 466 226 q 462 210 462 194 q 462 165 477 148 q 492 131 520 131 q 563 131 597 171 q 631 211 649 282 q 660 325 660 368 q 660 461 605 514 q 550 568 454 568 q 380 568 310 529 q 240 490 188 420 q 136 349 114 260 q 103 216 103 171 q 103 107 128 60 q 154 12 198 -12 q 243 -37 300 -37 q 347 -37 388 -24 q 429 -10 457 9 q 459 11 463 11 q 467 11 470 7 l 483 -16 q 484 -18 484 -21 q 484 -25 479 -30 q 443 -54 392 -70 q 342 -86 285 -86 q 215 -86 162 -56 q 109 -27 80 28 q 51 83 51 158 q 51 208 64 263 q 89 366 150 446 q 211 527 294 572 q 377 616 466 616 q 580 616 648 552 q 715 488 715 379 z m 415 218 l 431 283 l 443 336 q 445 343 445 356 q 445 377 434 389 q 423 401 402 401 q 377 401 357 383 q 337 365 329 336 l 321 303 l 312 263 q 301 215 294 192 q 292 180 292 175 q 292 153 304 140 q 315 127 336 127 q 361 127 380 145 q 400 163 408 192 z"},".":{"x_min":0,"x_max":184,"ha":184,"o":""},"p":{"x_min":0,"x_max":415,"ha":415,"o":"m 394 387 q 394 379 392 361 l 365 145 q 357 75 315 34 q 273 -8 211 -8 q 185 -8 162 2 q 138 13 123 35 q 121 37 120 36 q 118 35 118 33 l 91 -184 q 89 -194 80 -194 l 30 -194 q 26 -194 24 -191 q 21 -188 22 -184 l 106 496 q 106 500 109 503 q 112 506 116 506 l 166 506 q 176 506 174 496 l 172 473 q 171 471 173 470 q 175 470 177 472 q 197 493 223 504 q 249 514 276 514 q 331 514 362 480 q 394 445 394 387 z m 324 372 q 324 408 304 430 q 284 452 250 452 q 214 452 188 426 q 162 399 157 356 l 132 150 q 131 144 131 133 q 131 97 150 76 q 169 54 202 54 q 239 54 266 80 q 293 107 298 150 l 323 356 q 324 362 324 372 z"},"X":{"x_min":0,"x_max":421,"ha":421,"o":"m 19 12 l 196 347 q 197 349 197 353 l 102 688 l 101 691 q 101 700 111 700 l 163 700 q 171 700 172 692 l 240 426 q 241 423 243 423 q 245 423 246 426 l 380 692 q 384 700 391 700 l 443 700 q 448 700 450 696 q 452 693 449 688 l 271 352 q 270 350 270 346 l 366 12 l 367 9 q 367 0 357 0 l 306 0 q 297 0 296 8 l 228 273 q 227 276 225 276 q 223 276 222 273 l 88 8 q 85 0 77 0 l 25 0 q 20 0 18 4 q 16 7 19 12 z"},"*":{"x_min":0,"x_max":350,"ha":350,"o":"m 182 404 l 198 524 q 199 527 198 528 q 196 528 194 527 l 89 466 l 84 464 q 78 464 76 470 l 67 492 q 66 494 66 497 q 66 502 72 506 l 178 567 q 180 568 180 570 q 180 572 179 573 l 88 634 q 84 636 84 640 q 84 644 86 648 l 101 672 q 108 682 115 676 l 204 614 q 209 612 210 617 l 223 736 q 225 746 234 746 l 259 746 q 264 746 266 743 q 269 740 268 736 l 253 617 q 253 615 255 614 q 257 613 258 614 l 361 676 q 365 678 367 678 q 373 678 374 672 l 384 648 q 385 647 385 644 q 385 637 379 634 l 273 573 q 272 572 272 570 q 271 568 272 567 l 363 506 q 371 500 365 492 l 349 468 q 347 464 343 463 q 339 462 335 464 l 247 527 q 246 528 244 527 q 242 526 242 524 l 227 404 q 225 394 216 394 l 191 394 q 182 394 182 404 z"},"Y":{"x_min":0,"x_max":411,"ha":411,"o":"m 154 11 l 190 310 q 190 311 190 312 q 191 314 190 315 l 101 688 l 101 691 q 101 700 110 700 l 163 700 q 166 700 169 698 q 172 696 173 692 l 232 399 q 233 397 235 397 q 237 397 238 399 l 369 692 q 374 700 382 700 l 434 700 q 439 700 440 696 q 442 693 440 688 l 261 315 q 259 313 259 310 l 223 11 q 222 7 219 4 q 216 1 212 1 l 162 1 q 152 1 154 11 z"},"c":{"x_min":0,"x_max":390,"ha":390,"o":"m 46 121 q 46 137 47 145 l 73 361 q 81 429 128 472 q 175 514 244 514 q 307 514 344 479 q 381 444 381 392 q 381 381 380 375 l 378 365 q 378 361 375 358 q 372 355 368 355 l 318 353 q 309 353 309 363 l 310 370 q 311 374 311 381 q 311 411 290 432 q 270 452 236 452 q 199 452 173 426 q 147 399 142 356 l 116 150 q 115 144 115 134 q 115 98 135 76 q 155 54 187 54 q 223 54 250 78 q 277 103 282 136 l 282 143 q 284 153 293 153 l 343 152 q 347 152 350 149 q 352 146 351 142 l 350 131 q 342 71 295 32 q 248 -8 179 -8 q 117 -8 82 27 q 46 62 46 121 z"},"!":{"x_min":0,"x_max":244,"ha":244,"o":"m 104 238 l 154 690 q 154 694 157 697 q 160 700 165 700 l 214 700 q 224 700 222 690 l 160 238 q 159 228 149 228 l 112 228 q 103 228 104 238 z m 55 51 q 55 79 73 97 q 91 115 117 115 q 138 115 152 102 q 165 89 165 67 q 165 40 147 22 q 129 4 103 4 q 81 4 68 17 q 55 30 55 51 z"},"/":{"x_min":0,"x_max":324,"ha":324,"o":"m 6 11 l 265 691 q 269 700 277 700 l 326 700 q 331 700 333 697 q 335 694 333 689 l 74 9 q 70 0 62 0 l 14 0 q 9 0 6 3 q 4 6 6 11 z"},"[":{"x_min":0,"x_max":293,"ha":293,"o":"m -8 -111 l 100 764 q 100 768 103 771 q 106 774 111 774 l 261 774 q 271 774 269 764 l 264 722 q 262 712 253 712 l 166 712 q 162 712 162 708 l 68 -55 q 68 -59 71 -59 l 160 -59 q 164 -59 166 -62 q 169 -65 168 -69 l 163 -111 q 161 -121 152 -121 l 1 -121 q -4 -121 -6 -118 q -9 -115 -8 -111 z"},"6":{"x_min":0,"x_max":397,"ha":397,"o":"m 373 275 q 373 244 369 213 q 362 164 356 139 q 339 67 295 30 q 251 -8 186 -8 q 126 -8 92 27 q 57 62 56 130 q 55 138 55 154 q 55 182 59 209 l 98 537 q 108 615 156 662 q 204 708 274 708 q 331 708 366 670 q 401 631 401 566 q 401 557 399 537 l 397 521 q 395 511 386 511 l 336 511 q 326 511 328 521 l 330 535 q 331 542 331 556 q 331 595 312 620 q 294 644 266 644 q 228 644 201 614 q 174 584 168 535 l 151 401 q 151 399 152 398 q 154 398 156 400 q 172 420 194 430 q 217 441 243 441 q 302 441 336 404 q 370 367 372 302 q 373 294 373 275 z m 300 218 q 304 254 304 271 q 304 282 302 304 q 294 379 234 379 q 171 379 145 300 q 135 269 129 218 q 123 174 124 140 q 130 54 194 54 q 226 54 250 77 q 273 100 286 145 q 296 186 300 218 z"},"r":{"x_min":0,"x_max":284,"ha":284,"o":"m 309 500 q 315 495 312 487 l 294 435 q 291 426 282 429 q 271 435 254 435 q 245 435 241 434 q 207 432 180 396 q 153 361 147 310 l 110 10 q 108 0 99 0 l 49 0 q 45 0 42 3 q 40 6 41 10 l 101 496 q 101 500 104 503 q 107 506 112 506 l 161 506 q 170 506 170 496 l 162 436 q 162 433 164 433 q 165 433 166 435 q 205 511 268 511 q 291 511 309 500 z"},"2":{"x_min":0,"x_max":390,"ha":390,"o":"m 113 62 l 341 62 q 346 62 348 59 q 351 56 350 52 l 345 10 q 343 0 334 0 l 29 0 q 19 0 21 10 l 26 55 q 28 64 31 68 q 172 257 235 350 q 321 474 321 557 q 321 598 302 622 q 283 646 249 646 q 212 646 186 615 q 159 584 154 535 l 149 497 q 149 493 146 490 q 143 487 138 487 l 88 487 q 79 487 79 497 l 84 537 q 95 614 144 661 q 192 708 260 708 q 320 708 356 668 q 391 629 391 563 q 391 554 389 532 q 377 437 294 320 q 264 277 158 131 l 111 67 q 108 62 113 62 z"},"{":{"x_min":0,"x_max":265,"ha":265,"o":"m 61 -35 q 61 -27 63 -7 l 90 210 q 92 230 92 237 q 92 291 51 300 q 43 302 44 310 l 49 350 q 50 359 59 360 q 85 365 100 386 q 114 408 119 449 l 145 661 q 153 719 180 746 q 207 774 256 774 l 306 774 q 310 774 312 771 q 315 768 314 764 l 309 722 q 307 712 298 712 l 273 712 q 220 712 211 638 l 187 444 q 182 399 167 372 q 152 345 127 332 q 125 331 125 330 q 125 329 127 328 q 161 306 161 249 q 161 227 159 215 l 135 16 q 134 8 134 -5 q 134 -33 144 -46 q 155 -59 178 -59 l 203 -59 q 212 -59 212 -69 l 207 -111 q 206 -115 203 -118 q 200 -121 196 -121 l 146 -121 q 102 -121 82 -100 q 61 -79 61 -35 z"},"9":{"x_min":0,"x_max":391,"ha":391,"o":"m 340 163 q 330 85 282 38 q 234 -8 164 -8 q 107 -8 72 30 q 37 69 37 134 q 37 143 39 163 l 41 179 q 43 189 52 189 l 102 189 q 112 189 110 179 l 109 165 q 108 158 108 144 q 108 105 126 80 q 144 56 172 56 q 210 56 238 86 q 265 116 271 165 l 287 299 q 287 304 283 300 q 248 259 195 259 q 136 259 102 296 q 68 333 66 398 q 64 445 69 487 q 76 536 82 561 q 99 633 143 670 q 187 708 252 708 q 312 708 346 673 q 381 638 382 570 q 383 562 383 546 q 383 518 379 491 z m 294 400 q 303 432 309 482 q 315 526 314 560 q 308 646 244 646 q 212 646 188 623 q 165 600 152 555 q 142 514 138 482 q 134 446 134 429 q 134 418 136 396 q 140 359 158 340 q 175 321 204 321 q 267 321 294 400 z"}," ":{"x_min":0,"x_max":194,"ha":194,"o":""},"I":{"x_min":0,"x_max":208,"ha":208,"o":"m 52 10 l 135 690 q 137 700 146 700 l 196 700 q 200 700 202 697 q 205 694 204 690 l 121 10 q 120 6 117 3 q 114 0 110 0 l 60 0 q 50 0 52 10 z"},"H":{"x_min":0,"x_max":458,"ha":458,"o":"m 395 700 l 445 700 q 455 700 453 690 l 370 10 q 368 0 359 0 l 309 0 q 305 0 302 3 q 300 6 301 10 l 338 315 q 339 316 338 318 q 337 319 335 319 l 162 319 q 158 319 158 315 l 121 10 q 120 6 117 3 q 114 0 110 0 l 60 0 q 50 0 52 10 l 135 690 q 137 700 146 700 l 196 700 q 200 700 202 697 q 205 694 204 690 l 167 386 q 166 385 167 384 q 168 382 170 382 l 343 382 q 347 382 347 386 l 384 690 q 385 694 388 697 q 391 700 395 700 z"},"4":{"x_min":0,"x_max":403,"ha":403,"o":"m 392 246 l 387 202 q 385 192 376 192 l 346 192 q 344 192 342 191 q 341 190 341 188 l 319 10 q 319 6 316 3 q 313 0 308 0 l 259 0 q 249 0 251 10 l 272 188 q 273 189 272 190 q 271 192 269 192 l 35 192 q 25 192 27 202 l 31 240 q 33 248 35 252 l 234 692 q 239 700 247 700 l 300 700 q 312 700 307 689 l 114 261 q 113 259 114 258 q 115 256 117 256 l 277 256 q 281 256 281 260 l 300 413 q 302 423 311 423 l 360 423 q 365 423 368 420 q 370 417 369 413 l 350 260 q 350 258 351 257 q 352 256 353 256 l 384 256 q 388 256 390 253 q 393 250 392 246 z"},"~":{"x_min":0,"x_max":447,"ha":447,"o":"m 230 266 q 209 279 196 286 q 182 292 165 292 q 121 292 90 251 q 83 241 76 247 l 52 263 q 44 268 49 277 q 69 312 100 334 q 131 355 167 355 q 190 355 206 348 q 223 341 242 328 q 266 311 283 303 q 300 295 324 295 q 343 295 358 305 q 372 315 388 335 q 396 343 402 338 l 428 319 q 435 314 430 306 q 378 232 319 232 q 292 232 274 240 q 255 249 230 266 z"},"D":{"x_min":0,"x_max":451,"ha":451,"o":"m 52 10 l 135 690 q 137 700 146 700 l 295 700 q 362 700 400 660 q 439 619 439 548 q 439 538 437 514 l 396 186 q 386 101 335 50 q 284 0 210 0 l 60 0 q 50 0 52 10 z m 131 62 l 216 63 q 259 63 289 96 q 319 130 327 189 l 366 511 q 368 531 368 539 q 368 586 346 612 q 325 638 287 638 l 202 638 q 200 638 198 637 q 197 636 197 634 l 127 66 q 127 62 131 62 z"},"^":{"x_min":0,"x_max":384,"ha":384,"o":"m 55 318 l 224 692 q 227 700 236 700 l 280 700 q 288 700 291 692 l 369 318 l 369 316 q 369 307 360 307 l 320 307 q 312 307 309 315 l 251 618 q 251 620 249 620 q 247 620 246 618 l 113 315 q 110 307 101 307 l 61 307 q 50 307 55 318 z"},"0":{"x_min":0,"x_max":431,"ha":431,"o":"m 50 139 q 50 149 52 169 l 96 531 q 106 611 157 660 q 208 710 282 710 q 349 710 388 670 q 428 629 428 560 q 428 551 426 531 l 382 169 q 371 89 320 40 q 268 -10 194 -10 q 127 -10 88 30 q 50 71 50 139 z m 312 165 l 358 535 q 359 542 359 555 q 359 598 336 623 q 314 648 275 648 q 232 648 202 617 q 172 586 166 535 l 120 165 q 119 158 119 145 q 119 102 141 77 q 163 52 201 52 q 246 52 276 83 q 306 114 312 165 z"},"F":{"x_min":0,"x_max":392,"ha":392,"o":"m 425 638 l 202 638 q 200 638 198 637 q 197 636 197 634 l 167 386 q 166 385 167 384 q 168 382 170 382 l 311 382 q 321 382 319 372 l 314 329 q 312 319 303 319 l 162 319 q 158 319 158 315 l 121 10 q 120 6 117 3 q 114 0 110 0 l 60 0 q 50 0 52 10 l 135 690 q 137 700 146 700 l 432 700 q 441 700 441 690 l 436 648 q 435 644 432 641 q 429 638 425 638 z"},"`":{"x_min":0,"x_max":175,"ha":175,"o":""},"k":{"x_min":0,"x_max":393,"ha":393,"o":"m 41 10 l 124 690 q 125 694 128 697 q 131 700 135 700 l 185 700 q 195 700 193 690 l 144 288 q 144 286 146 285 q 147 284 149 286 l 320 500 q 325 506 333 506 l 383 506 q 389 506 390 502 q 392 499 388 494 l 274 352 q 272 350 272 346 l 346 11 l 346 9 q 346 0 337 0 l 285 0 q 277 0 275 8 l 222 286 q 222 289 220 289 q 218 289 217 287 l 133 183 l 130 178 l 110 10 q 108 0 99 0 l 49 0 q 45 0 42 3 q 40 6 41 10 z"},"u":{"x_min":0,"x_max":411,"ha":411,"o":"m 336 506 l 385 506 q 394 506 394 496 l 334 10 q 332 0 323 0 l 274 0 q 269 0 266 3 q 264 6 265 10 l 269 44 q 270 47 268 47 q 267 47 265 45 q 228 -7 161 -7 q 109 -7 80 22 q 50 51 50 110 q 50 118 52 140 l 96 496 q 98 506 107 506 l 156 506 q 165 506 165 496 l 123 156 q 121 138 121 132 q 121 55 188 55 q 227 55 252 84 q 278 113 284 163 l 325 496 q 325 500 328 503 q 331 506 336 506 z"},"]":{"x_min":0,"x_max":293,"ha":293,"o":"m 225 -121 l 72 -121 q 68 -121 66 -118 q 63 -115 64 -111 l 69 -69 q 71 -59 80 -59 l 169 -59 q 172 -59 174 -55 l 267 708 q 268 709 267 710 q 266 712 264 712 l 176 712 q 171 712 168 715 q 166 718 167 722 l 172 764 q 174 774 183 774 l 335 774 q 339 774 342 771 q 344 768 343 764 l 236 -111 q 234 -121 225 -121 z"},"U":{"x_min":0,"x_max":462,"ha":462,"o":"m 65 152 q 65 161 67 185 l 129 690 q 131 700 140 700 l 190 700 q 200 700 198 690 l 135 177 q 134 169 134 154 q 134 109 156 82 q 178 54 217 54 q 261 54 292 88 q 324 122 331 177 l 394 690 q 396 700 405 700 l 455 700 q 459 700 462 697 q 464 694 463 690 l 401 185 q 391 98 338 45 q 285 -8 210 -8 q 143 -8 104 35 q 65 78 65 152 z"},"o":{"x_min":0,"x_max":402,"ha":402,"o":"m 46 121 q 46 137 47 145 l 73 360 q 81 428 128 471 q 175 514 245 514 q 308 514 344 478 q 380 443 380 384 q 380 368 379 360 l 352 145 q 344 76 297 34 q 250 -8 180 -8 q 117 -8 82 27 q 46 62 46 121 z m 284 150 l 309 356 q 310 362 310 372 q 310 408 290 430 q 270 452 237 452 q 200 452 174 426 q 147 399 142 356 l 116 150 q 115 144 115 134 q 115 98 135 76 q 155 55 188 55 q 226 55 252 81 q 279 107 284 150 z"},"N":{"x_min":0,"x_max":479,"ha":479,"o":"m 418 700 l 466 700 q 475 700 475 690 l 391 10 q 389 0 380 0 l 323 0 q 316 0 313 8 l 188 525 q 187 528 185 528 q 183 527 183 524 l 121 10 q 120 6 117 3 q 114 0 110 0 l 60 0 q 50 0 52 10 l 135 690 q 137 700 146 700 l 202 700 q 211 700 212 692 l 339 174 q 339 171 341 172 q 343 172 344 175 l 407 690 q 407 694 410 697 q 413 700 418 700 z"},"+":{"x_min":0,"x_max":428,"ha":428,"o":"m 420 336 l 415 301 q 415 297 412 294 q 409 291 404 291 l 262 291 q 259 291 257 287 l 239 140 q 239 136 236 133 q 233 130 228 130 l 193 130 q 189 130 186 133 q 184 136 185 140 l 203 287 q 203 291 200 291 l 57 291 q 47 291 49 301 l 53 336 q 55 346 64 346 l 206 346 q 208 346 210 347 q 211 348 211 350 l 229 497 q 231 507 240 507 l 275 507 q 285 507 283 497 l 265 350 q 265 348 266 347 q 267 346 268 346 l 411 346 q 420 346 420 336 z"},"G":{"x_min":0,"x_max":437,"ha":437,"o":"m 52 133 q 52 141 54 159 l 101 541 q 111 617 162 662 q 212 708 286 708 q 353 708 392 670 q 432 633 432 568 q 432 560 430 540 l 425 497 q 423 487 414 487 l 364 487 q 360 487 358 490 q 355 493 356 497 l 361 542 q 362 548 362 560 q 362 599 340 622 q 317 646 278 646 q 235 646 205 618 q 175 589 169 542 l 122 158 q 121 152 121 142 q 121 102 144 78 q 166 54 205 54 q 249 54 279 82 q 309 111 314 158 l 330 286 q 330 290 327 290 l 243 290 q 233 290 235 300 l 240 342 q 242 352 251 352 l 397 352 q 406 352 406 342 l 383 159 q 374 83 323 38 q 272 -8 198 -8 q 131 -8 92 30 q 52 68 52 133 z"},"q":{"x_min":0,"x_max":415,"ha":415,"o":"m 335 506 l 384 506 q 393 506 393 496 l 309 -184 q 307 -194 298 -194 l 249 -194 q 240 -194 240 -184 l 267 33 q 267 39 262 35 q 242 13 216 2 q 191 -8 164 -8 q 109 -8 77 26 q 45 59 45 117 q 45 125 47 145 l 73 361 q 81 429 124 472 q 166 514 228 514 q 255 514 278 504 q 301 493 316 472 q 318 470 320 471 q 321 472 321 474 l 324 496 q 326 506 335 506 z m 281 150 l 307 356 q 308 362 308 372 q 308 408 288 430 q 269 452 237 452 q 200 452 173 426 q 146 399 141 356 l 115 150 q 114 145 114 134 q 114 98 134 76 q 155 54 188 54 q 225 54 250 80 q 276 107 281 150 z"},"d":{"x_min":0,"x_max":410,"ha":410,"o":"m 359 700 l 408 700 q 418 700 416 690 l 333 10 q 331 0 322 0 l 273 0 q 268 0 266 3 q 263 6 264 10 l 267 32 q 267 34 266 35 q 264 36 262 34 q 242 13 216 2 q 191 -8 164 -8 q 108 -8 76 26 q 45 61 45 118 q 45 127 47 145 l 73 361 q 82 431 124 472 q 166 514 228 514 q 255 514 278 504 q 301 493 316 471 q 317 469 319 470 q 321 471 321 473 l 348 690 q 348 694 351 697 q 354 700 359 700 z m 281 149 l 307 356 q 308 362 308 372 q 308 408 288 430 q 269 452 237 452 q 200 452 173 426 q 146 399 141 356 l 115 149 q 114 144 114 134 q 114 98 134 76 q 155 54 188 54 q 225 54 250 80 q 276 107 281 149 z"},"1":{"x_min":0,"x_max":248,"ha":248,"o":"m 196 700 l 248 700 q 258 700 256 690 l 173 10 q 171 0 162 0 l 113 0 q 108 0 106 3 q 103 6 104 10 l 178 616 q 179 618 178 619 q 176 620 174 619 l 79 588 l 76 587 q 70 587 68 596 l 68 633 q 68 640 76 645 l 183 697 q 189 700 196 700 z"},"5":{"x_min":0,"x_max":397,"ha":397,"o":"m 372 275 q 372 259 368 213 q 362 165 352 130 q 334 63 291 28 q 248 -8 185 -8 q 123 -8 88 27 q 54 62 52 132 l 53 162 q 53 172 63 172 l 112 172 q 122 172 122 162 l 122 138 q 126 54 193 54 q 256 54 282 134 q 292 164 299 214 q 303 254 303 269 q 303 282 301 300 q 297 334 279 352 q 261 370 232 370 q 165 370 140 301 q 136 292 128 292 l 78 292 q 73 292 70 295 q 68 298 69 302 l 117 690 q 117 694 120 697 q 123 700 128 700 l 402 700 q 411 700 411 690 l 405 648 q 405 644 402 641 q 399 638 395 638 l 183 638 q 179 638 179 634 l 147 386 q 147 384 148 383 q 150 382 152 384 q 171 408 198 420 q 225 433 257 433 q 309 433 338 401 q 366 369 370 309 q 372 289 372 275 z"}}}
